<?xml version="1.0" standalone="no"?>
<!DOCTYPE svg PUBLIC "-//W3C//DTD SVG 20010904//EN"
 "http://www.w3.org/TR/2001/REC-SVG-20010904/DTD/svg10.dtd">
<svg version="1.0" xmlns="http://www.w3.org/2000/svg"
 width="200.000000pt" height="200.000000pt" viewBox="0 0 200.000000 200.000000"
 preserveAspectRatio="xMidYMid meet">
<metadata>
Created by potrace 1.14, written by Peter Selinger 2001-2017
</metadata>
<g transform="translate(0.000000,200.000000) scale(0.100000,-0.100000)"
fill="#000000" stroke="none">
<path d="M190 1563 c0 -27 128 -144 195 -180 86 -45 157 -63 249 -63 103 0
179 17 371 80 84 27 193 60 242 71 112 27 254 29 337 5 35 -10 62 -14 68 -8
37 37 -86 82 -226 82 -107 0 -186 -18 -409 -90 -202 -65 -270 -80 -383 -80
-148 0 -263 45 -376 149 -61 56 -68 59 -68 34z"/>
<path d="M1335 1354 c-11 -2 -45 -9 -75 -15 -30 -6 -138 -38 -239 -70 -283
-91 -394 -105 -536 -69 -60 15 -81 17 -86 8 -28 -44 84 -88 224 -88 103 0 192
19 410 90 224 71 278 83 392 82 146 0 256 -47 385 -161 50 -44 71 -40 46 8
-39 75 -220 189 -335 211 -52 10 -146 12 -186 4z"/>
<path d="M1263 1145 c-34 -7 -132 -36 -216 -64 -218 -71 -306 -91 -412 -91
-131 0 -188 19 -337 109 l-38 23 0 -24 c0 -29 36 -65 105 -106 92 -53 149 -67
270 -66 123 1 168 11 430 94 253 81 355 95 483 65 34 -8 85 -26 113 -41 55
-27 76 -22 64 15 -7 24 -75 61 -154 85 -67 20 -220 20 -308 1z"/>
<path d="M230 933 c0 -28 101 -115 173 -151 92 -44 153 -55 271 -49 132 6 180
22 184 61 3 27 2 28 -30 23 -156 -27 -214 -30 -290 -14 -88 18 -161 51 -234
108 -56 43 -74 48 -74 22z"/>
</g>
</svg>
